<svg xmlns="http://www.w3.org/2000/svg" xmlns:xlink="http://www.w3.org/1999/xlink" fill="none" version="1.1" width="20" height="20" viewBox="0 0 20 20"><defs><clipPath id="master_svg0_2_772"><rect x="0" y="0" width="20" height="20" rx="0"/></clipPath></defs><g clip-path="url(#master_svg0_2_772)"><g><path d="M19.761600078125,10.187088720703125C19.761600078125,9.367708720703124,19.695120078125,8.769764720703124,19.551220078125,8.149688720703125L10.194580078125,8.149688720703125L10.194580078125,11.848008720703124L15.686720078125,11.848008720703124C15.576030078125001,12.767088720703125,14.978090078125,14.151218720703124,13.649310078125,15.081288720703125L13.630690078125,15.205108720703125L16.589080078125,17.496938720703128L16.794050078125,17.517398720703127C18.676410078125002,15.778928720703124,19.761600078125,13.221058720703125,19.761600078125,10.187088720703125Z" fill="#4285F4" fill-opacity="1" style="mix-blend-mode:passthrough"/></g><g><path d="M10.1946621875,19.9313055078125C12.8853921875,19.9313055078125,15.1441921875,19.0454255078125,16.7940921875,17.517405507812498L13.6493921875,15.0813055078125C12.8078921875,15.6681755078125,11.6783921875,16.0778655078125,10.1946621875,16.0778655078125C7.5593221875,16.0778655078125,5.3226021875,14.3394655078125,4.525272187500001,11.9366455078125L4.4084021875,11.9465690578125L1.3322211875,14.3272555078125L1.2919921875,14.4390855078125C2.9307721874999997,17.6945055078125,6.2969521875,19.9313055078125,10.1946621875,19.9313055078125Z" fill="#34A853" fill-opacity="1" style="mix-blend-mode:passthrough"/></g><g><path d="M4.52526390625,11.93664455078125C4.31488390625,11.31656455078125,4.193123906249999,10.65213455078125,4.193123906249999,9.96564455078125C4.193123906249999,9.27908455078125,4.31488390625,8.61473455078125,4.51419390625,7.9946545507812505L4.50862390625,7.86259455078125L1.39389390625,5.44366455078125L1.29198390625,5.49213795078125C0.6165609062499999,6.84305455078125,0.22900390625,8.360074550781249,0.22900390625,9.96564455078125C0.22900390625,11.571224550781249,0.6165609062499999,13.08816455078125,1.29198390625,14.43908455078125L4.52526390625,11.93664455078125Z" fill="#FBBC05" fill-opacity="1" style="mix-blend-mode:passthrough"/></g><g><path d="M10.1946621875,3.85336C12.0659921875,3.85336,13.3282921875,4.66168,14.0479921875,5.33718L16.8605921875,2.59107C15.1331921875,0.985496,12.8853921875,0,10.1946621875,0C6.2969521875,0,2.9307721874999997,2.23672,1.2919921875,5.49214L4.5142021875000005,7.99466C5.3226021875,5.59183,7.5593221875,3.85336,10.1946621875,3.85336Z" fill="#EB4335" fill-opacity="1" style="mix-blend-mode:passthrough"/></g></g></svg>